<?xml version="1.0" standalone="no"?>
<!DOCTYPE svg PUBLIC "-//W3C//DTD SVG 20010904//EN"
 "http://www.w3.org/TR/2001/REC-SVG-20010904/DTD/svg10.dtd">
<svg version="1.0" xmlns="http://www.w3.org/2000/svg"
 width="2048.000000pt" height="2048.000000pt" viewBox="0 0 2048.000000 2048.000000"
 preserveAspectRatio="xMidYMid meet">

<g transform="translate(0.000000,2048.000000) scale(0.100000,-0.100000)"
fill="#000000" stroke="none">
<path d="M0 10240 l0 -10240 10240 0 10240 0 0 10240 0 10240 -10240 0 -10240
0 0 -10240z m14806 5100 c259 -67 453 -243 541 -495 l28 -80 0 -4535 0 -4535
-28 -80 c-74 -210 -225 -372 -424 -455 -154 -64 218 -60 -4671 -60 -4952 0
-4536 -6 -4690 66 -198 91 -340 247 -409 449 l-28 80 0 4535 0 4535 28 80 c85
248 280 427 537 494 74 20 140 20 4556 20 4466 1 4481 1 4560 -19z"/>
<path d="M7248 13930 c-250 -45 -475 -204 -605 -426 -121 -205 -151 -485 -78
-709 99 -300 358 -531 663 -591 94 -18 249 -18 344 0 262 50 494 228 615 471
146 291 118 633 -72 900 -49 69 -148 166 -218 214 -64 44 -197 105 -272 126
-69 19 -305 29 -377 15z"/>
<path d="M11808 11619 c-338 -44 -655 -182 -898 -392 -108 -93 -243 -254 -291
-349 -11 -21 -26 -38 -34 -38 -13 0 -15 46 -15 335 l0 335 -725 0 -725 0 0
-2445 0 -2445 755 0 755 0 0 1263 c0 720 4 1320 10 1397 42 586 232 880 636
986 87 24 118 27 264 27 135 0 178 -4 240 -21 319 -86 480 -308 542 -746 21
-148 22 -182 25 -1528 l4 -1378 755 0 754 0 0 1373 c0 1601 -7 1842 -66 2187
-119 697 -404 1103 -922 1313 -141 58 -356 105 -571 127 -121 12 -397 11 -493
-1z"/>
<path d="M6640 9065 l0 -2445 760 0 760 0 0 2445 0 2445 -760 0 -760 0 0
-2445z"/>
</g>
</svg>
